<svg xmlns="http://www.w3.org/2000/svg" version="1.1" xmlns:xlink="http://www.w3.org/1999/xlink" xmlns:svgjs="http://svgjs.dev/svgjs" width="1440" height="560" preserveAspectRatio="none" viewBox="0 0 1440 560"><g mask="url(&quot;#SvgjsMask1179&quot;)" fill="none"><rect width="1440" height="560" x="0" y="0" fill="url(&quot;#SvgjsRadialGradient1180&quot;)"></rect><path d="M97.67 0C131.06 41.34 98.25 72.1 113.08 140C119.42 169.02 119.25 172.94 140 193.85C188.71 242.94 198.86 234.01 252 280C268.86 294.59 259.83 313.55 280 315C343.83 319.59 352.56 307.86 420 292.07C427.29 290.36 429.46 286.62 429.46 280C429.46 269.98 427.14 267.88 420 258.79C372.16 197.88 373.77 194.47 319.49 140C303.77 124.23 296.57 133.32 280 118.31C219.29 63.32 164.93 34.85 164.93 0C164.93 -24.3 222.47 0 280 0C350 0 350 0 420 0C485.94 0 488.24 -4.71 551.88 0C558.24 0.47 554.81 10.37 560 10.37C568.87 10.37 568.94 0.82 580 0C638.94 -4.37 640 0 700 0C770 0 770 0 840 0C910 0 910 0 980 0C1050 0 1050 0 1120 0C1190 0 1190 0 1260 0C1330 0 1330 0 1400 0C1448.87 0 1497.74 -21.67 1497.74 0C1497.74 32.29 1460.26 75.2 1400 107.92C1341.39 139.74 1329.62 116.68 1260 129.09C1239.62 132.72 1220 133.3 1220 140C1220 146.99 1239.4 149.94 1260 156.47C1329.4 178.46 1330.34 198.23 1400 197.04C1470.34 195.83 1502.61 129.51 1540 151.67C1572.61 170.99 1540 215.83 1540 280C1540 350 1540 350 1540 420C1540 431.66 1543.76 432.41 1540 443.33C1519.62 502.41 1532.27 526.21 1491.72 560C1462.27 584.55 1445.86 560 1400 560C1365.89 560 1364.08 567.97 1331.79 560C1294.08 550.69 1298.41 531.64 1260 525.43C1192.51 514.53 1184.27 512.77 1120 525.78C1098.87 530.06 1109.96 554.93 1089.2 560C1039.96 572.04 1034.6 560 980 560C910 560 910 560 840 560C770 560 770 560 700 560C630 560 630 560 560 560C555.34 560 555.23 560.95 550.67 560C485.23 546.33 483.77 530.75 420 530.75C386.82 530.75 390.07 553.04 356.77 560C320.07 567.67 318.38 560 280 560C210 560 210 560 140 560C70 560 40 590 0 560C-30 537.5 -30 477.73 0 455C40 424.7 74.23 466.51 140 453.94C165.77 449.01 183.08 437.13 183.08 420C183.08 402.66 165.99 390.24 140 385C74.45 371.78 40.32 413.32 0 383.08C-29.68 360.82 0 331.54 0 280C0 210 0 210 0 140C0 70 -28.77 41.23 0 0C20.07 -28.77 74.52 -28.66 97.67 0" stroke="rgba(51, 121, 194, 0.58)" stroke-width="2"></path><path d="M700 101.82C680.9 104.3 678.64 123.04 678.64 140C678.64 150.53 686.95 154.22 700 156.8C767.63 170.18 769.8 168.38 840 171.93C909.8 175.46 911.74 180.78 980 170.95C1022.58 164.82 1061.67 158.83 1061.67 140C1061.67 119.64 1024.18 96.75 980 92.58C913.34 86.29 910.35 116.76 840 119.08C770.35 121.38 761.58 93.84 700 101.82" stroke="rgba(51, 121, 194, 0.58)" stroke-width="2"></path><path d="M700 380.43C677.99 380.43 663.6 396.03 663.6 420C663.6 476.48 672.41 541.33 700 541.33C731.98 541.33 782.73 469.52 782.73 420C782.73 389.07 737.55 380.43 700 380.43" stroke="rgba(51, 121, 194, 0.58)" stroke-width="2"></path><path d="M980 391.4C945.05 391.4 908.11 402.29 908.11 420C908.11 439.52 946.04 465.86 980 465.86C1007.08 465.86 1030.19 440.13 1030.19 420C1030.19 402.9 1006.09 391.4 980 391.4" stroke="rgba(51, 121, 194, 0.58)" stroke-width="2"></path><path d="M16.28 0C47.03 63.12 38.74 71.5 68.21 140C98.97 211.5 154.05 228.07 136.74 280C119.94 330.38 47.9 344.62 0 344.62C-20.47 344.62 0 312.31 0 280C0 210 0 210 0 140C0 70 -7.29 62.71 0 0C0.85 -7.29 12.93 -6.88 16.28 0" stroke="rgba(51, 121, 194, 0.58)" stroke-width="2"></path><path d="M280 69.01C241.22 41.36 212.88 20.33 212.88 0C212.88 -14.17 246.44 0 280 0C350 0 350 0 420 0C460.58 0 469 -17.27 501.16 0C539 20.32 529.23 38.74 560 75.19C588.31 108.74 587.04 110.42 619.32 140C657.04 174.56 653.92 183.98 700 203.47C764.26 230.65 769.79 232.25 840 233.33C909.79 234.41 909.43 214.51 980 207.79C1049.43 201.18 1050.3 202.36 1120 206.67C1190.3 211.02 1193.8 204.58 1260 225.1C1312.07 241.24 1308.2 252.67 1356.55 280C1378.2 292.24 1383.01 286.56 1400 304.23C1450.34 356.56 1491.21 361.46 1491.21 420C1491.21 480.78 1457.89 527.28 1400 542.86C1342.28 558.39 1331.99 506.61 1260 482.22C1191.99 459.18 1185.25 472.79 1120 448C1103.37 441.68 1111.31 430.15 1096.23 420C1041.31 383.03 1041.95 362.87 980 353.76C913.84 344.03 909.35 385.13 840 382.31C769.35 379.44 761.3 331.46 700 342.39C655.6 350.31 661.88 379.21 628.6 420C591.88 465 606.54 500.92 560 513.97C502.24 530.17 487.2 503.57 420 478.51C361.2 456.58 308 450.98 308 420C308 387.93 370.46 393.51 420 352.41C454.84 323.51 476.76 319.7 476.76 280C476.76 219.86 450.16 215.25 420 152.73C416.39 145.25 416.34 144.25 409.23 140C346.34 102.39 339.4 111.36 280 69.01" stroke="rgba(51, 121, 194, 0.58)" stroke-width="2"></path><path d="M840 78.85C768 69.47 702.8 21.12 702.8 0C702.8 -18.31 771.4 0 840 0C910 0 910 0 980 0C1009.47 0 1038.95 -8.31 1038.95 0C1038.95 9.75 1011.91 23.48 980 36.13C912.44 62.91 906.6 87.53 840 78.85" stroke="rgba(51, 121, 194, 0.58)" stroke-width="2"></path><path d="M1260 83.64C1205.99 75.59 1165.29 23.9 1165.29 0C1165.29 -17.92 1212.64 0 1260 0C1330 0 1330 0 1400 0C1415.85 0 1431.7 -7.03 1431.7 0C1431.7 10.47 1420.74 24.9 1400 35C1334.89 66.72 1323.35 93.09 1260 83.64" stroke="rgba(51, 121, 194, 0.58)" stroke-width="2"></path><path d="M0 491.46C48.62 491.46 140 541.95 140 560C140 576.22 46.99 583.01 0 560C-23.01 548.74 -21.38 491.46 0 491.46" stroke="rgba(51, 121, 194, 0.58)" stroke-width="2"></path><path d="M784 560C784 529.19 799.13 473.72 840 466.67C897.13 456.82 913.14 491.39 980 526.21C1002.74 538.06 1019.2 550.39 1019.2 560C1019.2 567.28 999.6 560 980 560C910 560 910 560 840 560C812 560 784 575.85 784 560" stroke="rgba(51, 121, 194, 0.58)" stroke-width="2"></path><path d="M0 84.85C6.07 84.85 15.19 111.29 23.33 140C42.86 208.86 63.53 221.75 55.35 280C51.86 304.83 19.39 306.15 0 306.15C-8.28 306.15 0 293.08 0 280C0 210 0 210 0 140C0 112.43 -5.59 84.85 0 84.85" stroke="rgba(51, 121, 194, 0.58)" stroke-width="2"></path><path d="M280 19.72C267.29 15.19 260.82 5.81 260.82 0C260.82 -4.05 270.41 0 280 0C350 0 350 0 420 0C435.22 0 450.43 -9.11 450.43 0C450.43 19.27 446.23 53.72 420 56.76C361.02 63.58 346.88 43.57 280 19.72" stroke="rgba(51, 121, 194, 0.58)" stroke-width="2"></path><path d="M840 38.62C804.86 38.62 772.8 10.34 772.8 0C772.8 -8.97 806.4 0 840 0C890.91 0 941.82 -9.33 941.82 0C941.82 9.98 889.37 38.62 840 38.62" stroke="rgba(51, 121, 194, 0.58)" stroke-width="2"></path><path d="M1260 38.18C1235.42 38.18 1216.76 10.91 1216.76 0C1216.76 -8.18 1238.38 0 1260 0C1303.24 0 1346.47 -9.12 1346.47 0C1346.47 9.97 1300.28 38.18 1260 38.18" stroke="rgba(51, 121, 194, 0.58)" stroke-width="2"></path><path d="M524.05 280C556.35 217.06 520.59 146.69 560 140C608.57 131.76 624.23 206.26 700 250.13C745.14 276.26 801.82 266.35 801.82 280C801.82 293.46 741.63 276.36 700 304.35C637.52 346.36 644.97 360.67 593.6 420C574.97 441.51 584.42 465.15 560 466.03C497.62 468.28 489.53 447.33 420 426.27C413.53 424.31 408 423.32 408 420C408 416.56 415.55 418.13 420 412.76C473.57 348.13 486.35 353.44 524.05 280" stroke="rgba(51, 121, 194, 0.58)" stroke-width="2"></path><path d="M868 280C868 262.14 924.66 244.63 980 244.63C1024.87 244.63 1068.42 262.15 1068.42 280C1068.42 297.9 1024.9 316.13 980 316.13C924.69 316.13 868 297.89 868 280" stroke="rgba(51, 121, 194, 0.58)" stroke-width="2"></path><path d="M1202.96 420C1202.96 382.51 1217.57 334.18 1260 323.75C1316.09 309.95 1337.13 337.58 1400 371.54C1426.22 385.7 1438.18 395.5 1438.18 420C1438.18 445.44 1427.47 468.5 1400 471.43C1338.38 478 1329.46 457.14 1260 439.01C1230.94 431.42 1202.96 440.14 1202.96 420" stroke="rgba(51, 121, 194, 0.58)" stroke-width="2"></path><path d="M0 527.92C22.76 527.92 65.53 551.55 65.53 560C65.53 567.59 22 570.77 0 560C-10.77 554.73 -10.01 527.92 0 527.92" stroke="rgba(51, 121, 194, 0.58)" stroke-width="2"></path></g><defs><mask id="SvgjsMask1179"><rect width="1440" height="560" fill="#ffffff"></rect></mask><radialGradient cx="0%" cy="50%" r="1466.97" gradientUnits="userSpaceOnUse" id="SvgjsRadialGradient1180"><stop stop-color="rgba(2, 17, 36, 1)" offset="0"></stop><stop stop-color="rgba(4, 90, 200, 1)" offset="1"></stop></radialGradient></defs></svg>